<?xml version="1.0" encoding="iso-8859-1"?>
<!-- Generator: Adobe Illustrator 19.0.0, SVG Export Plug-In . SVG Version: 6.00 Build 0)  -->
<svg version="1.1" id="Layer_1" xmlns="http://www.w3.org/2000/svg" xmlns:xlink="http://www.w3.org/1999/xlink" x="0px" y="0px"
	 viewBox="0 0 472.615 472.615" style="enable-background:new 0 0 472.615 472.615;" xml:space="preserve">
<g>
	<g>
		<path d="M240.51,220.837c-49.981-23.596-102.875-32.28-153.019-25.097l-8.452,1.212v242.403l11.24-1.606
			c46.259-6.644,95.288,1.452,141.548,23.269l4.961,2.452l9.365-5.817V223.5L240.51,220.837z M226.462,437.134
			c-34.269-14.124-69.644-21.327-104.336-21.327c-7.837,0-15.645,0.365-23.394,1.106v-202.72
			c41.894-4.356,85.759,3.144,127.73,21.865V437.134z"/>
	</g>
</g>
<g>
	<g>
		<path d="M111.828,365.164l2.788,19.499c30.394-4.375,62.596,0.962,93.144,15.394l8.404-17.808
			C182.145,366.183,146.078,360.279,111.828,365.164z"/>
	</g>
</g>
<g>
	<g>
		<path d="M111.828,306.067l2.788,19.5c30.413-4.356,62.606,0.981,93.144,15.394l8.404-17.808
			C182.115,307.086,146.029,301.164,111.828,306.067z"/>
	</g>
</g>
<g>
	<g>
		<path d="M111.828,246.972l2.788,19.499c30.413-4.365,62.606,0.981,93.144,15.394l8.404-17.808
			C182.115,247.991,146.029,242.077,111.828,246.972z"/>
	</g>
</g>
<g>
	<g>
		<path d="M384.972,195.74c-50.135-7.192-103.049,1.51-153.019,25.097l-5.645,2.663v228.663l0.029,5.538l9.26,5.692l4.836-2.278
			c46.452-21.914,95.442-30.019,141.75-23.366l11.24,1.606V196.952L384.972,195.74z M373.731,416.913
			c-41.991-4.029-85.625,2.895-127.731,20.231V236.058c41.961-18.731,85.808-26.231,127.731-21.865V416.913z"/>
	</g>
</g>
<g>
	<g>
		<path d="M256.298,382.25l8.404,17.808c30.539-14.432,62.741-19.769,93.145-15.394l2.788-19.499
			C326.433,360.288,290.328,366.173,256.298,382.25z"/>
	</g>
</g>
<g>
	<g>
		<path d="M256.298,323.154l8.404,17.808c30.549-14.414,62.751-19.76,93.145-15.394l2.788-19.5
			C326.442,301.183,290.356,307.086,256.298,323.154z"/>
	</g>
</g>
<g>
	<g>
		<path d="M256.298,264.058l8.404,17.808c30.549-14.414,62.751-19.769,93.145-15.394l2.788-19.499
			C326.442,242.087,290.356,247.981,256.298,264.058z"/>
	</g>
</g>
<g>
	<g>
		<path d="M374.154,146.991c-2.057,0-4.163,0.077-6.336,0.24c-8.163-27.664-33.317-47.856-62.491-49.376
			C288.405,45.241,239.423,9.145,183.616,9.145c-70.577,0-128,57.423-128,128c0,6.298,0.49,12.682,1.461,19.057
			C22.616,172.202,0,207.077,0,245.452C0,295.914,37.78,338,87.885,343.346l2.096-19.576c-40.067-4.279-70.289-37.952-70.289-78.317
			c0-32.933,20.846-62.654,51.866-73.952l8.077-2.932l-1.817-8.395c-1.664-7.702-2.51-15.452-2.51-23.028
			c0-59.722,48.586-108.308,108.308-108.308c49.423,0,92.519,33.471,104.797,81.403l2.635,7.914l8.192-0.577
			c0.837-0.058,1.674-0.125,2.529-0.125c24.212,0,45.125,18.067,48.634,42.028l1.442,9.866l9.846-1.577
			c4.586-0.731,8.664-1.086,12.461-1.086c43.433,0,78.769,35.336,78.769,78.769c0,40.346-30.201,74.018-70.249,78.317l2.096,19.576
			c50.076-5.375,87.845-47.461,87.845-97.893C472.615,191.164,428.443,146.991,374.154,146.991z"/>
	</g>
</g>
<g>
</g>
<g>
</g>
<g>
</g>
<g>
</g>
<g>
</g>
<g>
</g>
<g>
</g>
<g>
</g>
<g>
</g>
<g>
</g>
<g>
</g>
<g>
</g>
<g>
</g>
<g>
</g>
<g>
</g>
</svg>
