<?xml version="1.0" encoding="iso-8859-1"?>
<!-- Generator: Adobe Illustrator 19.0.0, SVG Export Plug-In . SVG Version: 6.00 Build 0)  -->
<svg version="1.1" id="Capa_1" xmlns="http://www.w3.org/2000/svg" xmlns:xlink="http://www.w3.org/1999/xlink" x="0px" y="0px"
	 viewBox="0 0 512 512" style="enable-background:new 0 0 512 512;" xml:space="preserve">
<g>
	<g>
		<g>
			<path d="M494.933,76.8h-17.067V34.133c0-9.426-7.641-17.067-17.067-17.067H51.2c-9.426,0-17.067,7.641-17.067,17.067V128H17.067
				C7.641,128,0,135.641,0,145.067v332.8c0,9.426,7.641,17.067,17.067,17.067h477.867c9.426,0,17.067-7.641,17.067-17.067v-384
				C512,84.441,504.359,76.8,494.933,76.8z M51.2,34.133h409.6V76.8H336.469c-1.22-0.132-2.45-0.132-3.669,0l-1.536,0.512
				l-1.707,0.512c-2.124,0.913-4.04,2.249-5.632,3.925L280.235,128H51.2V34.133z M494.933,477.867H17.067v-332.8h263.168
				c4.675,0.006,9.148-1.907,12.373-5.291l43.861-45.909h158.464V477.867z"/>
			<path d="M247.467,162.133H51.2c-9.426,0-17.067,7.641-17.067,17.067v51.2c0,9.426,7.641,17.067,17.067,17.067h196.267
				c9.426,0,17.067-7.641,17.067-17.067v-51.2C264.533,169.774,256.892,162.133,247.467,162.133z M247.467,230.4H51.2v-51.2h196.267
				V230.4z"/>
		</g>
	</g>
</g>
<g>
</g>
<g>
</g>
<g>
</g>
<g>
</g>
<g>
</g>
<g>
</g>
<g>
</g>
<g>
</g>
<g>
</g>
<g>
</g>
<g>
</g>
<g>
</g>
<g>
</g>
<g>
</g>
<g>
</g>
</svg>
