<svg id="svg" xmlns="http://www.w3.org/2000/svg" xmlns:xlink="http://www.w3.org/1999/xlink" width="400" height="518.5185185185185" viewBox="0, 0, 400,518.5185185185185"><g id="svgg"><path id="path0" d="M266.667 7.882 C 252.407 11.383,230.092 12.373,217.077 10.080 C 202.578 7.527,184.338 10.440,169.980 17.603 C 152.420 26.363,142.879 27.331,131.916 21.464 C 107.208 8.240,90.497 30.663,89.934 77.794 C 89.673 99.704,83.974 130.331,77.270 145.853 C 70.567 161.374,65.337 184.907,65.649 198.148 C 66.180 220.732,64.645 222.222,40.851 222.222 C 17.607 222.222,15.069 224.446,10.499 248.808 C 3.692 285.093,10.836 375.169,21.544 388.072 C 26.756 394.352,28.209 406.785,25.153 418.959 L 20.039 439.335 60.843 435.124 C 99.308 431.154,103.297 432.348,130.453 455.961 C 187.680 505.724,212.320 505.724,269.547 455.961 C 296.703 432.348,300.692 431.154,339.157 435.124 L 379.961 439.335 374.847 418.959 C 371.642 406.193,373.310 394.273,379.311 387.042 C 412.350 347.232,389.727 226.720,348.148 221.046 C 328.427 218.354,325.111 170.723,336.507 53.842 C 341.574 1.872,327.871 -7.146,266.667 7.882 M218.572 22.309 C 221.144 26.470,213.174 31.810,200.657 34.313 C 188.256 36.793,174.294 43.421,169.629 49.041 C 159.230 61.571,171.357 62.717,183.704 50.370 C 190.617 43.457,192.593 44.588,192.593 55.460 C 192.593 67.912,194.817 67.351,212.963 50.315 C 239.778 25.141,275.639 17.438,291.619 33.418 C 298.203 40.002,306.709 43.461,310.521 41.105 C 323.122 33.317,326.578 64.561,316.387 94.141 C 310.875 110.142,307.775 135.315,309.499 150.081 C 311.994 171.457,308.801 180.761,293.832 195.731 C 283.491 206.071,278.172 216.473,282.012 218.846 C 285.852 221.220,290.993 217.950,293.437 211.581 C 299.485 195.820,318.546 196.875,318.405 212.963 C 318.175 239.288,290.655 257.025,267.982 245.461 C 248.798 235.677,201.269 228.054,214.815 236.934 C 223.934 242.912,223.100 244.238,210.163 244.331 C 201.493 244.393,188.897 236.944,182.171 227.778 L 169.942 211.111 177.824 227.778 C 185.215 243.405,184.073 244.444,159.520 244.444 L 133.333 244.444 132.166 205.556 C 131.525 184.167,131.583 161.667,132.297 155.556 C 133.010 149.444,134.699 134.108,136.048 121.474 C 137.398 108.840,141.142 93.840,144.369 88.141 C 148.351 81.105,146.207 81.555,137.691 89.543 C 116.777 109.158,104.966 175.771,115.808 212.963 C 126.480 249.573,109.402 260.395,96.113 225.444 C 86.741 200.794,86.843 170.370,96.296 170.370 C 100.370 170.370,103.704 152.037,103.704 129.630 C 103.704 106.230,107.000 88.889,111.447 88.889 C 116.284 88.889,117.365 79.160,114.326 62.963 C 109.567 37.593,124.806 24.654,136.727 43.943 C 139.074 47.741,155.104 42.781,172.349 32.921 C 207.655 12.734,212.033 11.729,218.572 22.309 M222.072 96.545 C 191.353 147.387,190.765 149.580,197.751 187.286 C 204.504 223.730,205.376 224.873,213.097 207.407 C 218.688 194.759,221.432 192.859,221.753 201.415 C 222.445 219.873,237.956 226.303,248.152 212.358 C 253.030 205.688,259.191 202.401,261.844 205.053 C 264.496 207.706,266.681 198.488,266.698 184.568 C 266.718 168.871,275.146 146.600,288.889 125.926 C 312.182 90.886,319.387 68.445,299.451 93.029 C 293.037 100.937,289.991 103.095,292.681 97.824 C 302.163 79.243,281.298 64.536,265.605 78.739 C 252.604 90.504,251.852 90.299,251.852 74.990 C 251.852 53.209,270.097 47.542,292.650 62.319 C 311.720 74.815,317.901 69.012,302.222 53.333 C 278.618 29.729,254.628 42.662,222.072 96.545 M274.172 133.096 C 269.056 145.449,261.940 155.556,258.361 155.556 C 249.316 155.556,250.121 150.760,263.509 124.870 C 278.201 96.459,286.649 102.976,274.172 133.096 M286.883 160.031 C 283.912 163.002,281.481 170.543,281.481 176.790 C 281.481 185.128,283.673 185.957,289.722 179.907 C 294.255 175.375,296.685 167.833,295.123 163.148 C 293.562 158.463,289.853 157.060,286.883 160.031 M358.730 248.677 C 365.132 255.079,370.370 263.413,370.370 267.196 C 370.370 277.495,349.888 275.488,346.076 264.815 C 344.257 259.722,340.151 257.995,336.951 260.977 C 333.751 263.959,340.604 280.066,352.181 296.771 C 368.750 320.681,371.520 329.773,365.196 339.498 C 357.050 352.025,324.163 353.343,320.015 341.309 C 318.801 337.787,311.301 336.608,303.349 338.687 C 290.251 342.112,288.889 338.475,288.889 300.071 C 288.889 267.476,291.206 258.563,298.911 261.520 C 304.423 263.635,314.390 258.992,321.060 251.201 C 335.793 233.995,343.530 233.477,358.730 248.677 M85.309 259.649 C 89.142 271.725,92.274 273.079,100.529 266.228 C 120.674 249.509,133.333 263.881,133.333 303.471 C 133.333 339.944,132.858 340.741,111.111 340.741 C 91.518 340.741,88.889 338.194,88.889 319.215 C 88.889 298.921,87.833 298.180,70.428 306.252 C 57.332 312.326,51.951 320.735,51.910 335.185 C 51.872 348.328,47.910 355.556,40.741 355.556 C 31.852 355.556,29.630 344.444,29.630 300.000 L 29.630 244.444 55.056 244.444 C 74.195 244.444,81.677 248.205,85.309 259.649 M51.852 278.215 C 51.852 288.966,55.058 295.189,59.259 292.593 C 63.333 290.075,66.667 281.545,66.667 273.637 C 66.667 265.729,63.333 259.259,59.259 259.259 C 55.185 259.259,51.852 267.789,51.852 278.215 M161.517 298.727 C 164.559 345.353,181.449 345.009,190.011 298.148 C 198.683 250.682,216.146 250.679,225.314 298.142 C 232.405 334.844,226.839 351.822,213.848 333.119 C 208.121 324.873,205.366 324.475,202.522 331.481 C 200.416 336.673,186.021 340.741,169.753 340.741 L 140.741 340.741 140.741 299.383 C 140.741 247.451,158.136 246.903,161.517 298.727 M269.765 263.755 C 278.240 267.008,281.481 278.279,281.481 304.496 C 281.481 339.929,267.653 357.039,265.658 324.074 L 264.649 307.407 261.439 324.074 C 254.578 359.694,237.037 342.388,237.037 300.000 C 237.037 258.210,241.740 253.001,269.765 263.755 M108.642 279.012 C 100.979 286.675,102.825 324.508,111.111 329.630 C 115.585 332.394,118.519 322.299,118.519 304.141 C 118.519 273.435,117.305 270.349,108.642 279.012 M311.111 295.728 C 311.111 311.048,314.753 318.519,322.222 318.519 C 328.333 318.519,333.333 321.852,333.333 325.926 C 333.333 330.000,336.667 333.333,340.741 333.333 C 353.405 333.333,348.935 317.888,329.630 294.945 L 311.111 272.937 311.111 295.728 M287.802 352.907 C 318.876 356.155,333.333 360.859,333.333 367.722 C 333.333 373.253,339.423 377.778,346.865 377.778 C 357.489 377.778,359.740 382.258,357.338 398.623 C 354.623 417.119,351.760 419.099,331.944 416.191 C 318.227 414.178,313.054 410.785,318.536 407.397 C 323.445 404.363,298.783 399.491,263.731 396.571 C 190.523 390.473,67.078 398.420,82.565 408.234 C 90.466 413.240,89.972 414.612,80.235 414.701 C 73.439 414.764,63.013 416.682,57.067 418.963 C 49.388 421.910,45.293 416.546,42.930 400.445 C 40.255 382.218,42.254 377.778,53.135 377.778 C 60.577 377.778,66.667 372.960,66.667 367.073 C 66.667 351.601,196.028 343.315,287.802 352.907 M96.296 373.457 C 96.296 379.907,101.574 385.185,108.025 385.185 C 121.106 385.185,118.828 369.239,105.093 364.660 C 100.255 363.048,96.296 367.006,96.296 373.457 M244.444 374.074 C 244.444 380.185,250.278 384.922,257.407 384.600 C 265.228 384.248,266.679 382.527,261.065 380.264 C 255.947 378.201,253.644 373.464,255.947 369.738 C 258.249 366.012,256.604 362.963,252.289 362.963 C 247.975 362.963,244.444 367.963,244.444 374.074 M288.889 373.457 C 288.889 379.907,294.167 385.185,300.617 385.185 C 313.698 385.185,311.420 369.239,297.685 364.660 C 292.847 363.048,288.889 367.006,288.889 373.457 " stroke="none" fill="#000000" fill-rule="evenodd"></path></g></svg>